<?xml version="1.0" encoding="UTF-8"?>
<svg xmlns="http://www.w3.org/2000/svg" xmlns:xlink="http://www.w3.org/1999/xlink" viewBox="0 0 16 16" version="1.1" fill="#455565"><g id="surface1" fill="#455565"><path style=" " d="M 4.5 2 C 3.671875 2 3 2.671875 3 3.5 L 3 13 L 8.085938 13 L 7.585938 12.5 L 8.085938 12 L 4 12 L 4 3.5 C 4 3.226563 4.222656 3 4.5 3 L 10.5 3 C 10.777344 3 11 3.226563 11 3.5 L 11 9 L 11.085938 9 L 12 8.085938 L 12 3.5 C 12 2.671875 11.328125 2 10.5 2 Z M 5 4 L 5 5 L 7 5 L 7 4 Z M 8 4 L 8 5 L 10 5 L 10 4 Z M 5 6 L 5 7 L 7 7 L 7 6 Z M 8 6 L 8 7 L 10 7 L 10 6 Z M 5 8 L 5 9 L 7 9 L 7 8 Z M 8 8 L 8 9 L 10 9 L 10 8 Z M 12.5 9 L 11.5 10 L 10 10 L 10 11.5 L 9 12.5 L 10 13.5 L 10 15 L 11.5 15 L 12.5 16 L 13.5 15 L 15 15 L 15 13.5 L 16 12.5 L 15 11.5 L 15 10 L 13.5 10 Z M 5 10 L 5 11 L 7 11 L 7 10 Z M 8 10 L 8 11 L 9 11 L 9 10 Z M 12.5 10.414063 L 13.085938 11 L 14 11 L 14 11.914063 L 14.585938 12.5 L 14 13.085938 L 14 14 L 13.085938 14 L 12.5 14.585938 L 11.914063 14 L 11 14 L 11 13.085938 L 10.414063 12.5 L 11 11.914063 L 11 11 L 11.914063 11 Z " fill="#455565"/></g></svg>
