<?xml version="1.0" encoding="UTF-8"?>
<svg xmlns="http://www.w3.org/2000/svg" xmlns:xlink="http://www.w3.org/1999/xlink" viewBox="0 0 16 16" version="1.1" fill="#455565"><g id="surface1" fill="#455565"><path style=" " d="M 2.5 2 C 1.675781 2 1 2.675781 1 3.5 L 1 11.5 C 1 12.324219 1.675781 13 2.5 13 L 13.5 13 C 14.324219 13 15 12.324219 15 11.5 L 15 3.5 C 15 2.675781 14.324219 2 13.5 2 Z M 2.5 3 L 13.5 3 C 13.78125 3 14 3.21875 14 3.5 L 14 11.5 C 14 11.78125 13.78125 12 13.5 12 L 12 12 C 12 11.449219 11.550781 11 11 11 C 10.449219 11 10 11.449219 10 12 L 6 12 C 6 11.449219 5.550781 11 5 11 C 4.449219 11 4 11.449219 4 12 L 2.5 12 C 2.21875 12 2 11.78125 2 11.5 L 2 3.5 C 2 3.21875 2.21875 3 2.5 3 Z M 6 4 C 4.902344 4 4 4.902344 4 6 C 4 6.535156 4.21875 7.023438 4.5625 7.382813 C 3.636719 7.894531 3 8.871094 3 10 L 4 10 C 4 8.890625 4.890625 8 6 8 C 7.109375 8 8 8.890625 8 10 L 9 10 C 9 8.871094 8.363281 7.894531 7.4375 7.382813 C 7.78125 7.023438 8 6.535156 8 6 C 8 4.902344 7.097656 4 6 4 Z M 6 5 C 6.558594 5 7 5.441406 7 6 C 7 6.558594 6.558594 7 6 7 C 5.441406 7 5 6.558594 5 6 C 5 5.441406 5.441406 5 6 5 Z M 10 6 L 10 7 L 13 7 L 13 6 Z M 10 8 L 10 9 L 13 9 L 13 8 Z " fill="#455565"/></g></svg>
