<?xml version="1.0" encoding="utf-8" ?>
<svg xmlns="http://www.w3.org/2000/svg" xmlns:xlink="http://www.w3.org/1999/xlink" width="19" height="16">
	<defs>
		<clipPath id="clip_0">
			<rect x="-910.17017" y="-667.02002" width="1396.8" height="2046.7001" clip-rule="evenodd"/>
		</clipPath>
	</defs>
	<g clip-path="url(#clip_0)">
		<path fill="rgb(247,168,35)" stroke="none" transform="matrix(0.97 0 0 0.97 0.659912 0.339996)" d="M4.90772 3.59033C5.43189 1.51221 7.32446 0 9.5 0C11.2395 0 12.812 0.941651 13.647 2.43066C15.9014 2.01318 17.8125 3.77588 17.8125 5.9375C17.8125 6.21118 17.78 6.4895 17.7105 6.76318C18.5269 7.43579 19 8.43311 19 9.5C19 11.4622 17.3997 13.0625 15.4375 13.0625L10.6875 13.0625L10.6875 11.875L15.4375 11.875C16.7456 11.875 17.8125 10.8081 17.8125 9.5C17.8125 8.68359 17.395 7.93677 16.6992 7.49609L16.291 7.23633L16.458 6.78174C16.5693 6.49878 16.625 6.21582 16.625 5.9375C16.625 4.6294 15.5581 3.5625 14.25 3.5625C14.0227 3.5625 13.7815 3.60425 13.5125 3.69238L12.9929 3.86865L12.7842 3.3584C12.2229 2.04102 10.9333 1.1875 9.5 1.1875C7.74658 1.1875 6.23901 2.50024 5.99316 4.24439L5.91895 4.75928L5.40405 4.75928L5.28345 4.74536C4.36035 4.75 3.5625 5.54785 3.5625 6.53125L3.57642 7.03223L3.08936 7.17139C1.98999 7.39404 1.1875 8.3728 1.1875 9.5C1.1875 10.8081 2.2544 11.875 3.5625 11.875L7.125 11.875L7.125 13.0625L3.5625 13.0625C1.60034 13.0625 0 11.4622 0 9.5C0 7.9646 0.992676 6.61011 2.41211 6.12769C2.61157 4.80103 3.62744 3.78052 4.90772 3.59033ZM5.9375 10.6875L8.90625 7.125L11.875 10.6875L9.5 10.6875L9.5 15.4375L8.3125 15.4375L8.3125 10.6875L5.9375 10.6875Z" fill-rule="evenodd"/>
	</g>

</svg>