<?xml version="1.0" encoding="utf-8" ?>
<svg xmlns="http://www.w3.org/2000/svg" xmlns:xlink="http://www.w3.org/1999/xlink" width="30" height="30">
	<defs>
		<clipPath id="clip_0">
			<rect x="-373" y="-102" width="1440" height="1054" clip-rule="evenodd"/>
		</clipPath>
	</defs>
	<g clip-path="url(#clip_0)">
		<path fill="rgb(42,53,73)" stroke="none" d="M15 30C23.2843 30 30 23.2843 30 15C30 6.71573 23.2843 0 15 0C6.71573 0 0 6.71573 0 15C0 23.2843 6.71573 30 15 30Z"/>
	</g>
	<defs>
		<clipPath id="clip_1">
			<rect x="-373" y="-102" width="1440" height="1054" clip-rule="evenodd"/>
		</clipPath>
	</defs>
	<g clip-path="url(#clip_1)">
		<path fill="rgb(255,255,255)" stroke="none" transform="translate(8 7)" d="M6.76923 0C4.73798 0 3.07692 1.29327 3.07692 3.69231C3.07692 5.29808 3.82452 6.96154 4.92308 7.88462L4.92308 8.73077C4.92308 9.10096 4.67308 9.41827 4.36538 9.48077C1.96635 10.2188 0 11.8077 0 12.7308L0 13.8462C0 15.0144 3.01442 16 6.76923 16C10.524 16 13.5385 15.0144 13.5385 13.8462L13.5385 12.7308C13.5385 11.8702 11.6346 10.2188 9.17308 9.48077C8.86539 9.41827 8.61538 9.03846 8.61538 8.73077L8.61538 7.88462C9.71394 6.96154 10.4615 5.29808 10.4615 3.69231C10.4615 1.29327 8.80048 0 6.76923 0Z"/>
	</g>

</svg>