<?xml version="1.0" encoding="UTF-8"?>
<svg width="10px" height="10px" viewBox="0 0 10 10" version="1.1" xmlns="http://www.w3.org/2000/svg" xmlns:xlink="http://www.w3.org/1999/xlink">
    <!-- Generator: Sketch 53 (72520) - https://sketchapp.com -->
    <title>icons8-login_rounded_right</title>
    <desc>Created with Sketch.</desc>
    <g id="Symbols" stroke="none" stroke-width="1" fill="none" fill-rule="evenodd">
        <g id="Sign-Up" transform="translate(-770.000000, -57.000000)" fill="#FFFFFF" fill-rule="nonzero">
            <g id="Group" transform="translate(680.000000, 40.000000)">
                <g id="icons8-login_rounded_right" transform="translate(90.000000, 17.000000)">
                    <path d="M5,0 C3.32932692,0 1.84795692,0.820312308 0.9375,2.08233154 C0.928485385,2.09735615 0.916466154,2.11238 0.907452308,2.13040846 C0.70012,2.42788462 0.537860769,2.74639462 0.399639231,3.07692308 L1.23197154,3.07692308 C1.32812538,2.88762 1.43930308,2.70733154 1.5625,2.53305308 C2.33173077,1.46634615 3.58173077,0.769230769 5,0.769230769 C7.34074538,0.769230769 9.23076923,2.65925462 9.23076923,5 C9.23076923,7.34074538 7.34074538,9.23076923 5,9.23076923 C3.62079308,9.23076923 2.40084154,8.57572154 1.62860615,7.55709154 C1.47536077,7.35576923 1.34615385,7.14242769 1.23497615,6.92307692 L0.399639231,6.92307692 C0.552884615,7.28966385 0.739183077,7.64122615 0.979567692,7.96875 C0.988581538,7.98377385 1.00060077,7.99879846 1.00961538,8.01682692 C1.01262,8.01682692 1.01262,8.01983154 1.01562538,8.01983154 C1.01562538,8.02283692 1.01562538,8.02283692 1.01562538,8.02283692 C1.92908692,9.22175462 3.37740385,10 5,10 C7.75841385,10 10,7.75841385 10,5 C10,2.24158692 7.75841385,0 5,0 Z M5.38461538,3.07692308 L5.38461538,4.61538462 L0,4.61538462 L0,5.38461538 L5.38461538,5.38461538 L5.38461538,6.92307692 L7.30769231,5 L5.38461538,3.07692308 Z" id="Shape"></path>
                </g>
            </g>
        </g>
    </g>
</svg>