<?xml version="1.0" encoding="UTF-8"?>
<svg width="186px" height="94px" viewBox="0 0 186 94" version="1.1" xmlns="http://www.w3.org/2000/svg" xmlns:xlink="http://www.w3.org/1999/xlink">
    <!-- Generator: Sketch 53 (72520) - https://sketchapp.com -->
    <title>Yes Logo</title>
    <desc>Created with Sketch.</desc>
    <g id="Company-Portal" stroke="none" stroke-width="1" fill="none" fill-rule="evenodd">
        <g id="Signup---Enter-Email-Address-(Vendor)" transform="translate(-101.000000, -34.000000)">
            <g id="Yes-Logo" transform="translate(101.000000, 34.000000)">
                <path d="M93.6142574,47.4530194 C93.6142574,21.7455355 72.657241,0.906341935 46.8078148,0.906341935 C20.9568639,0.906341935 -0.000152459016,21.7455355 -0.000152459016,47.4530194 C-0.000152459016,73.1605032 20.9568639,93.9996968 46.8078148,93.9996968 C72.657241,93.9996968 93.6142574,73.1605032 93.6142574,47.4530194" id="Fill-1" fill="#F6A723"></path>
                <path d="M111.252698,28.3475194 L113.675272,34.1724871 L116.15578,28.3475194 L120.202043,28.3475194 L115.526125,37.3593903 L115.526125,41.8198419 L111.82442,41.8198419 L111.82442,37.3214871 L107.226256,28.3475194 L111.252698,28.3475194 Z M130.866856,38.5932161 L130.866856,41.8195387 L121.211626,41.8195387 L121.211626,28.3472161 L130.694577,28.3472161 L130.694577,31.5720226 L124.933151,31.5720226 L124.933151,33.4702161 L129.856052,33.4702161 L129.856052,36.4691194 L124.933151,36.4691194 L124.933151,38.5932161 L130.866856,38.5932161 Z M140.807336,32.7492968 C140.426189,32.5218774 140.03132,32.3202323 139.624254,32.1428452 C139.281221,31.9897161 138.897025,31.8472 138.470139,31.7152968 C138.044779,31.5818774 137.627041,31.5166839 137.219975,31.5166839 C136.889139,31.5166839 136.625385,31.5667161 136.428713,31.6667806 C136.232041,31.7698774 136.132943,31.9396839 136.132943,32.1792323 C136.132943,32.3566194 136.190877,32.5021677 136.303697,32.6158774 C136.419566,32.7295871 136.584221,32.8357161 136.800713,32.9297161 C137.017205,33.0252323 137.280959,33.1162 137.591975,33.2056516 C137.904516,33.292071 138.256697,33.4012323 138.651566,33.527071 C139.275123,33.7181032 139.837697,33.9258129 140.339287,34.1532323 C140.842402,34.3806516 141.272336,34.6505226 141.62909,34.9598129 C141.98432,35.2691032 142.257221,35.6451032 142.44932,36.089329 C142.639893,36.5320387 142.734418,37.0702645 142.734418,37.7024903 C142.734418,38.5121032 142.585008,39.191329 142.286189,39.7416839 C141.987369,40.2920387 141.5925,40.7317161 141.103107,41.0592 C140.613713,41.3882 140.060287,41.6262323 139.442828,41.7717806 C138.826893,41.917329 138.206385,41.9901032 137.582828,41.9901032 C137.087336,41.9901032 136.578123,41.9506839 136.056713,41.8763935 C135.535303,41.8005871 135.016943,41.6914258 134.501631,41.5534581 C133.98632,41.4139742 133.490828,41.2487161 133.013631,41.0592 C132.536434,40.8696839 132.094303,40.6559097 131.687238,40.4148452 L133.289582,37.170329 C133.734762,37.4492968 134.199762,37.6964258 134.683057,37.9102 C135.090123,38.0997161 135.550549,38.2710387 136.065861,38.4226516 C136.581172,38.5742645 137.105631,38.6515871 137.640762,38.6515871 C138.046303,38.6515871 138.329877,38.5954903 138.488434,38.4893613 C138.648516,38.3817161 138.727795,38.2392 138.727795,38.0618129 C138.727795,37.8722968 138.648516,37.710071 138.488434,37.5796839 C138.329877,37.4462645 138.110336,37.3295226 137.831336,37.2264258 C137.550811,37.1263613 137.230648,37.0247806 136.867795,36.9232 C136.504943,36.8231355 136.120746,36.7018452 135.71368,36.5638774 C135.114516,36.3607161 134.60073,36.1423935 134.167746,35.9089097 C133.734762,35.6754258 133.378008,35.4085871 133.099008,35.1114258 C132.818484,34.8142645 132.612664,34.4761677 132.4785,34.0971355 C132.345861,33.7181032 132.278779,33.2814581 132.278779,32.7872 C132.278779,32.0412645 132.415992,31.3832645 132.688893,30.8147161 C132.961795,30.2446516 133.333795,29.7701032 133.804893,29.391071 C134.275992,29.0105226 134.812648,28.7239742 135.41791,28.5283935 C136.021648,28.3312968 136.660451,28.2327484 137.335844,28.2327484 C137.831336,28.2327484 138.314631,28.2812645 138.784205,28.3752645 C139.255303,28.4707806 139.711156,28.5905548 140.148713,28.7361032 C140.587795,28.8816516 140.99791,29.0408452 141.379057,29.2106516 C141.76173,29.3804581 142.104762,29.5426839 142.40968,29.6942968 L140.807336,32.7492968 Z M109.22789,55.3446226 L114.551759,55.3446226 L114.551759,48.4128806 L109.22789,55.3446226 Z M114.411497,60.0855581 L114.411497,56.5696548 L107.797825,56.5696548 L107.797825,55.3840419 L114.849054,46.2978806 L115.762284,46.2978806 L115.762284,55.3446226 L117.510989,55.3446226 L117.510989,56.5696548 L115.762284,56.5696548 L115.762284,60.0855581 L114.411497,60.0855581 Z M123.288575,46.3839968 L125.711149,52.2089645 L128.191657,46.3839968 L132.23792,46.3839968 L127.562002,55.3958677 L127.562002,59.8563194 L123.860297,59.8563194 L123.860297,55.3579645 L119.262133,46.3839968 L123.288575,46.3839968 Z M135.404951,53.1385032 C135.404951,53.5948581 135.468984,54.0330194 135.595525,54.4575355 C135.722066,54.8805355 135.912639,55.2565355 136.167246,55.5855355 C136.421852,55.9160516 136.743541,56.1813742 137.130787,56.3830194 C137.519557,56.5846645 137.979984,56.6877613 138.515115,56.6877613 C139.048721,56.6877613 139.513721,56.5816323 139.90859,56.3739226 C140.301934,56.1646968 140.623623,55.8917935 140.870607,55.5582452 C141.119115,55.2231806 141.30359,54.8396 141.424033,54.4105355 C141.544475,53.9799548 141.605459,53.5448258 141.605459,53.1006 C141.605459,52.6457613 141.541426,52.2060839 141.414885,51.7815677 C141.28682,51.3585677 141.093197,50.9840839 140.834016,50.6626645 C140.571787,50.339729 140.247049,50.080471 139.859803,49.8848903 C139.471033,49.6893097 139.016705,49.5907613 138.495295,49.5907613 C137.961689,49.5907613 137.501262,49.6923419 137.112492,49.8939871 C136.723721,50.0956323 136.403557,50.3655032 136.148951,50.7005677 C135.894344,51.0356323 135.70682,51.4146645 135.586377,51.8391806 C135.46441,52.2636968 135.404951,52.6957935 135.404951,53.1385032 Z M138.477,59.9701806 C137.446377,59.9701806 136.511803,59.7730839 135.671754,59.3804065 C134.83323,58.9892452 134.113623,58.4737613 133.515984,57.835471 C132.918344,57.1971806 132.453344,56.4648903 132.122508,55.6431484 C131.791672,54.8198903 131.627016,53.9738903 131.627016,53.1006 C131.627016,52.2151806 131.79777,51.3616 132.142328,50.5383419 C132.485361,49.7166 132.965607,48.9934065 133.583066,48.3672452 C134.199,47.7395677 134.930803,47.2407613 135.776951,46.8662774 C136.623098,46.4948258 137.548525,46.3068258 138.55323,46.3068258 C139.583852,46.3068258 140.518426,46.5039226 141.358475,46.8966 C142.197,47.2892774 142.915082,47.8062774 143.514246,48.4521484 C144.111885,49.0965032 144.572311,49.8303097 144.897049,50.6520516 C145.221787,51.4753097 145.383393,52.3167613 145.383393,53.1764065 C145.383393,54.0618258 145.212639,54.9123742 144.869607,55.7280516 C144.525049,56.543729 144.047852,57.2654065 143.438016,57.8915677 C142.826656,58.517729 142.099426,59.0210839 141.253279,59.4001161 C140.407131,59.7806645 139.481705,59.9701806 138.477,59.9701806 Z M152.8827,56.6874581 C153.314159,56.6874581 153.68311,56.5919419 153.989552,56.4024258 C154.29447,56.2129097 154.542979,55.9627484 154.733552,55.6519419 C154.924126,55.3426516 155.064389,54.9863613 155.152815,54.5800387 C155.241241,54.1767484 155.286979,53.7522323 155.286979,53.3080065 L155.286979,46.3838452 L159.006979,46.3838452 L159.006979,53.3080065 C159.006979,54.2464903 158.886536,55.1212968 158.644126,55.9369742 C158.403241,56.7526516 158.028192,57.4591677 157.518979,58.0519742 C157.009766,58.6478129 156.370962,59.1162968 155.601044,59.4574258 C154.831126,59.7985548 153.92552,59.9698774 152.8827,59.9698774 C151.801766,59.9698774 150.876339,59.7894581 150.106421,59.4286194 C149.336503,59.0677806 148.703798,58.5841355 148.208307,57.9776839 C147.71129,57.3697161 147.349962,56.6647161 147.119749,55.8611677 C146.891061,55.0591355 146.776716,54.207071 146.776716,53.3080065 L146.776716,46.3838452 L150.498241,46.3838452 L150.498241,53.3080065 C150.498241,53.7522323 150.54093,54.1797806 150.63088,54.5891355 C150.720831,55.0015226 150.859569,55.3623613 151.050143,55.6716516 C151.240716,55.9809419 151.486175,56.228071 151.784995,56.4115226 C152.083815,56.5949742 152.449716,56.6874581 152.8827,56.6874581 Z M171.695838,49.6088032 L167.803559,49.6088032 L167.803559,59.8563194 L164.082034,59.8563194 L164.082034,49.6088032 L160.171461,49.6088032 L160.171461,46.3839968 L171.695838,46.3839968 L171.695838,49.6088032 Z M185.033105,46.3839968 L185.033105,59.8563194 L181.313105,59.8563194 L181.313105,54.5801903 L176.771351,54.5801903 L176.771351,59.8563194 L173.049826,59.8563194 L173.049826,46.3839968 L176.771351,46.3839968 L176.771351,51.3538677 L181.313105,51.3538677 L181.313105,46.3839968 L185.033105,46.3839968 Z M108.581311,77.8926452 L108.581311,76.0323548 L109.707984,76.0323548 L109.707984,77.8926452 L108.581311,77.8926452 Z M111.367348,71.0611194 C111.367348,70.2515065 111.510659,69.4464419 111.797282,68.6413774 C112.08238,67.8393452 112.500118,67.1207 113.045921,66.4884742 C113.593249,65.8562484 114.267118,65.3407645 115.069052,64.9420226 C115.870987,64.5432806 116.779643,64.3431516 117.796544,64.3431516 C119.005544,64.3431516 120.039216,64.6160548 120.897561,65.1603452 C121.755905,65.7046355 122.38861,66.4126677 122.7972,67.2859581 L121.746757,67.931829 C121.530266,67.4891194 121.266511,67.1131194 120.955495,66.8098935 C120.642954,66.5066677 120.309069,66.2610548 119.953839,66.0715387 C119.597085,65.8820226 119.228134,65.745571 118.846987,65.6621839 C118.465839,65.581829 118.089266,65.5393774 117.720315,65.5393774 C116.906184,65.5393774 116.188102,65.7046355 115.564544,66.0336355 C114.940987,66.3611194 114.416528,66.7932161 113.991167,67.3238613 C113.564282,67.8545065 113.242593,68.4518613 113.027626,69.1174419 C112.811134,69.7799903 112.702889,70.4546677 112.702889,71.1369258 C112.702889,71.8828613 112.832479,72.5984742 113.094708,73.2822484 C113.355413,73.9645065 113.710643,74.5679258 114.161921,75.0925065 C114.6132,75.6186032 115.148331,76.0355387 115.76579,76.344829 C116.381725,76.6556355 117.052544,76.8102806 117.778249,76.8102806 C118.159397,76.8102806 118.551216,76.7632806 118.952184,76.6677645 C119.351626,76.5737645 119.740397,76.4221516 120.115446,76.2129258 C120.490495,76.0052161 120.836577,75.7459581 121.155216,75.4351516 C121.472331,75.1258613 121.740659,74.7498613 121.957151,74.3056355 L123.064003,74.8757 C122.847511,75.3820871 122.542593,75.827829 122.147725,76.2129258 C121.752856,76.5980226 121.313774,76.9239903 120.832003,77.1893129 C120.347184,77.4561516 119.836446,77.6593129 119.295216,77.7972806 C118.753987,77.9352484 118.22343,78.0065065 117.70202,78.0065065 C116.773544,78.0065065 115.921298,77.8033452 115.145282,77.3985387 C114.369266,76.9937323 113.701495,76.4661194 113.14197,75.8141839 C112.580921,75.1622484 112.146413,74.4238935 111.835397,73.594571 C111.522856,72.7652484 111.367348,71.9207645 111.367348,71.0611194 Z M125.658856,71.1558774 C125.658856,71.8896839 125.779298,72.5946839 126.021708,73.2723935 C126.262593,73.9485871 126.605626,74.5489742 127.050807,75.075071 C127.497511,75.5996516 128.02502,76.0165871 128.634856,76.3258774 C129.246216,76.6366839 129.926184,76.791329 130.676282,76.791329 C131.440102,76.791329 132.13379,76.626071 132.755823,76.2985871 C133.37938,75.9695871 133.906889,75.5405226 134.339872,75.0083613 C134.772856,74.4762 135.106741,73.8758129 135.341528,73.2056839 C135.576315,72.5355548 135.695233,71.8517806 135.695233,71.1558774 C135.695233,70.4235871 135.570216,69.717071 135.323233,69.0393613 C135.074725,68.3631677 134.728643,67.767329 134.283462,67.2472968 C133.836757,66.7287806 133.310774,66.3148774 132.699413,66.0055871 C132.088052,65.6947806 131.414184,65.5401355 130.676282,65.5401355 C129.913987,65.5401355 129.220298,65.7008452 128.596741,66.0237806 C127.973184,66.3452 127.445675,66.7727484 127.012692,67.3049097 C126.579708,67.8355548 126.247348,68.4359419 126.011036,69.106071 C125.776249,69.7777161 125.658856,70.4599742 125.658856,71.1558774 Z M130.676282,77.9875548 C129.73561,77.9875548 128.872692,77.7950065 128.090577,77.4083935 C127.309987,77.0217806 126.637643,76.509329 126.078118,75.8710387 C125.518593,75.2327484 125.087134,74.5019742 124.780692,73.6802323 C124.475774,72.8569742 124.323315,72.0155226 124.323315,71.1558774 C124.323315,70.258329 124.484921,69.3986839 124.809659,68.5754258 C125.134397,67.7536839 125.582626,67.0259419 126.154348,66.3937161 C126.727593,65.7599742 127.401462,65.2581355 128.177479,64.8851677 C128.953495,64.5122 129.79202,64.3257161 130.696102,64.3257161 C131.636774,64.3257161 132.498167,64.524329 133.281807,64.923071 C134.063921,65.3202968 134.731692,65.8433613 135.283593,66.4892323 C135.838544,67.1335871 136.266954,67.8643613 136.571872,68.6800387 C136.87679,69.4957161 137.030774,70.328071 137.030774,71.1755871 C137.030774,72.0731355 136.869167,72.9342968 136.54443,73.7560387 C136.219692,74.5777806 135.774511,75.3009742 135.208889,75.9271355 C134.641741,76.5548129 133.970921,77.0551355 133.194905,77.4281032 C132.418889,77.801071 131.578839,77.9875548 130.676282,77.9875548 Z M138.710262,77.8926452 L138.710262,76.0323548 L139.83541,76.0323548 L139.83541,77.8926452 L138.710262,77.8926452 Z M141.667052,76.8487903 L150.881675,65.5960806 L141.819511,65.5960806 L141.819511,64.4210806 L152.429134,64.4210806 L152.429134,65.4626613 L143.327331,76.715371 L152.409315,76.715371 L152.409315,77.8918871 L141.667052,77.8918871 L141.667052,76.8487903 Z M162.254966,72.636529 L159.525949,65.9746581 L156.760343,72.636529 L162.254966,72.636529 Z M158.972523,64.4206258 L160.09767,64.4206258 L165.726457,77.8929484 L164.316211,77.8929484 L162.559884,73.6796258 L156.47372,73.6796258 L154.737211,77.8929484 L153.305621,77.8929484 L158.972523,64.4206258 Z" id="Combined-Shape" fill="#F6A723"></path>
                <path d="M40.023541,54.9389065 L38.4882787,58.4639065 L38.4882787,61.0064548 L37.4042951,61.0064548 L37.4042951,58.4639065 L35.8537869,54.9389065 L37.0338197,54.9389065 L37.5079672,56.0547774 L37.9500984,57.3541 L38.3937541,56.025971 L38.8450328,54.9389065 L40.023541,54.9389065 Z M40.0778164,59.2430452 L40.0778164,56.6777548 C40.0778164,55.3951097 40.6403902,54.8674968 42.1116197,54.8674968 C43.5828492,54.8674968 44.1926852,55.3951097 44.1926852,56.6777548 L44.1926852,59.2430452 C44.1926852,60.4938516 43.5599803,61.0517871 42.1116197,61.0517871 C40.663259,61.0517871 40.0778164,60.4938516 40.0778164,59.2430452 Z M43.0995541,59.1884645 L43.0995541,56.7338516 C43.0995541,56.1819806 42.9577672,55.8287226 42.1116197,55.8287226 C41.3203574,55.8287226 41.169423,56.1819806 41.169423,56.7338516 L41.169423,59.1884645 C41.169423,59.7630774 41.3203574,60.0935935 42.1116197,60.0935935 C42.902882,60.0935935 43.0995541,59.7630774 43.0995541,59.1884645 Z M48.1087475,54.9463355 L49.2003541,54.9463355 L49.2003541,59.2036258 C49.2003541,60.4559484 48.4334852,61.0517871 47.1513049,61.0517871 C45.8691246,61.0517871 45.157141,60.4559484 45.157141,59.2036258 L45.157141,54.9463355 L46.2487475,54.9463355 L46.2487475,59.147529 C46.2487475,59.7221419 46.5018295,60.0935935 47.1513049,60.0935935 C47.7992557,60.0935935 48.1087475,59.7221419 48.1087475,59.147529 L48.1087475,54.9463355 Z M53.3934344,55.9293935 L52.134123,55.9293935 L52.134123,60.9978129 L51.0501393,60.9978129 L51.0501393,55.9293935 L49.7847295,55.9293935 L49.7847295,54.9621032 L53.3934344,54.9621032 L53.3934344,55.9293935 Z M58.0923738,60.9975097 L57.0083902,60.9975097 L57.0083902,58.6050581 L55.1087508,58.6050581 L55.1087508,61.0050903 L54.0095213,61.0050903 L54.0095213,55.0406387 L55.1087508,55.0406387 L55.1087508,57.6150258 L57.0083902,57.6150258 L57.0083902,55.0406387 L58.0923738,55.0406387 L58.0923738,60.9975097 Z M39.5679934,63.7439774 L39.5679934,64.6885258 L37.1545672,64.6885258 L37.1545672,66.2455903 L39.2127639,66.2455903 L39.2127639,67.2219774 L37.1545672,67.2219774 L37.1545672,68.8199774 L39.6792885,68.8199774 L39.6792885,69.8115258 L36.0629607,69.8115258 L36.0629607,63.7439774 L39.5679934,63.7439774 Z M42.7005689,68.3709 L41.4900443,65.9314484 L41.6165852,67.6628677 L41.6165852,69.8021258 L40.5249787,69.8021258 L40.5249787,63.7436742 L41.5769459,63.7436742 L42.8194869,66.4272226 L44.0696508,63.7436742 L45.121618,63.7436742 L45.121618,69.8021258 L44.0300115,69.8021258 L44.0300115,67.6628677 L44.1565525,65.9314484 L42.9460279,68.3709 L42.7005689,68.3709 Z M47.7551951,63.7439774 C49.2264246,63.7439774 49.9155393,64.2715903 49.9155393,65.5527194 L49.9155393,66.112171 C49.9155393,67.3629774 49.2035557,67.945171 47.7551951,67.945171 L47.3359328,67.945171 L47.3359328,69.802429 L46.2199328,69.802429 L46.2199328,63.7439774 L47.7551951,63.7439774 Z M47.7551951,66.8990419 C48.5464574,66.8990419 48.8071623,66.6306871 48.8071623,66.0560742 L48.8071623,65.6073 C48.8071623,65.0342032 48.6165885,64.7340097 47.770441,64.7340097 L47.3283098,64.7340097 L47.3283098,66.8990419 L47.7551951,66.8990419 Z M54.2502541,69.8025806 L50.8001066,69.8025806 L50.8001066,63.744129 L51.9008607,63.744129 L51.9008607,68.8110323 L54.2502541,68.8110323 L54.2502541,69.8025806 Z M54.7088508,68.0481161 L54.7088508,65.4828258 C54.7088508,64.2001806 55.2699,63.6725677 56.7426541,63.6725677 C58.2138836,63.6725677 58.8237197,64.2001806 58.8237197,65.4828258 L58.8237197,68.0481161 C58.8237197,69.2989226 58.1910148,69.8568581 56.7426541,69.8568581 C55.2942934,69.8568581 54.7088508,69.2989226 54.7088508,68.0481161 Z M57.7305885,67.9935355 L57.7305885,65.5374065 C57.7305885,64.9870516 57.5888016,64.6337935 56.7426541,64.6337935 C55.9513918,64.6337935 55.8004574,64.9870516 55.8004574,65.5374065 L55.8004574,67.9935355 C55.8004574,68.5681484 55.9513918,68.8986645 56.7426541,68.8986645 C57.5339164,68.8986645 57.7305885,68.5681484 57.7305885,67.9935355 Z M63.0636049,63.7439774 L61.5283426,67.2689774 L61.5283426,69.8115258 L60.444359,69.8115258 L60.444359,67.2689774 L58.8938508,63.7439774 L60.072359,63.7439774 L60.5465066,64.8598484 L60.9901623,66.159171 L61.433818,64.8310419 L61.8850967,63.7439774 L63.0636049,63.7439774 Z M65.7688377,68.3709 L64.5583131,65.9314484 L64.6848541,67.6628677 L64.6848541,69.8021258 L63.5932475,69.8021258 L63.5932475,63.7436742 L64.6452148,63.7436742 L65.8877557,66.4272226 L67.1363951,63.7436742 L68.1898869,63.7436742 L68.1898869,69.8021258 L67.0982803,69.8021258 L67.0982803,67.6628677 L67.2248213,65.9314484 L66.0142967,68.3709 L65.7688377,68.3709 Z M72.7932344,63.7439774 L72.7932344,64.6885258 L70.3798082,64.6885258 L70.3798082,66.2455903 L72.4380049,66.2455903 L72.4380049,67.2219774 L70.3798082,67.2219774 L70.3798082,68.8199774 L72.9045295,68.8199774 L72.9045295,69.8115258 L69.2882016,69.8115258 L69.2882016,63.7439774 L72.7932344,63.7439774 Z M77.5799902,69.8025806 L76.5204,69.8025806 L74.7320557,65.9637419 L74.8265803,68.2591613 L74.8265803,69.8025806 L73.7425967,69.8025806 L73.7425967,63.7517097 L74.8265803,63.7517097 L76.6149246,67.7421613 L76.4960066,65.1844516 L76.4960066,63.7517097 L77.5799902,63.7517097 L77.5799902,69.8025806 Z M81.7963967,64.7346161 L80.5386098,64.7346161 L80.5386098,69.8030355 L79.4531016,69.8030355 L79.4531016,64.7346161 L78.1876918,64.7346161 L78.1876918,63.7673258 L81.7963967,63.7673258 L81.7963967,64.7346161 Z M37.7955049,73.3797355 C37.1932918,73.3797355 36.9478328,73.5692516 36.9478328,74.1438645 C36.9478328,74.9079935 37.5576689,74.8443161 38.4846197,74.9868323 C39.1889803,75.0959935 39.8598,75.3779935 39.8598,76.5908968 C39.8598,77.9918 39.2514885,78.5830903 37.787882,78.5830903 C36.2678656,78.5830903 35.7860951,77.8492839 35.7860951,76.8744129 L36.8853246,76.8744129 C36.909718,77.3383484 37.1140131,77.5900258 37.8107508,77.5900258 C38.4678492,77.5900258 38.7681934,77.3156065 38.7681934,76.6303161 C38.7681934,75.9147032 37.914423,75.9147032 37.2649475,75.8282839 C36.5773574,75.7418645 35.8486033,75.4022516 35.8486033,74.1514452 C35.8486033,73.0188968 36.545341,72.4291226 37.7955049,72.4291226 C38.896259,72.4291226 39.6234885,72.8293806 39.7256361,74.0422839 L38.6264066,74.0422839 C38.5943902,73.5313484 38.3245377,73.3797355 37.7955049,73.3797355 Z M44.2742508,72.4603548 L44.2742508,73.4049032 L41.8608246,73.4049032 L41.8608246,74.9619677 L43.9190213,74.9619677 L43.9190213,75.9383548 L41.8608246,75.9383548 L41.8608246,77.5363548 L44.3855459,77.5363548 L44.3855459,78.5263871 L40.769218,78.5263871 L40.769218,72.4603548 L44.2742508,72.4603548 Z M47.9375361,78.5189581 L46.7270115,76.3872806 L46.3229951,76.3872806 L46.3229951,78.5189581 L45.2313885,78.5189581 L45.2313885,72.4605065 L46.7651262,72.4605065 C48.2378803,72.4605065 48.9254705,72.9941839 48.9254705,74.276829 L48.9254705,74.5921839 C48.9254705,75.4897323 48.6098803,75.9764097 47.8735033,76.2129258 L49.2105689,78.5189581 L47.9375361,78.5189581 Z M46.7651262,75.3881516 C47.5563885,75.3881516 47.7789787,75.1122161 47.7789787,74.5376032 L47.7789787,74.3314097 C47.7789787,73.7567968 47.6295689,73.4581194 46.7818967,73.4581194 L46.3153721,73.4581194 L46.3153721,75.3881516 L46.7651262,75.3881516 Z M53.7203066,72.4677839 L52.0828967,78.5262355 L50.9425033,78.5262355 L49.2974705,72.4677839 L50.4134705,72.4677839 L50.9425033,74.3174613 L51.5127,77.1495903 L52.0737492,74.3007839 L52.6043066,72.4677839 L53.7203066,72.4677839 Z M54.3440164,78.5263871 L54.3440164,72.4679355 L55.4447705,72.4679355 L55.4447705,78.5263871 L54.3440164,78.5263871 Z M60.5794377,76.6459323 C60.5794377,77.9755774 59.9467328,78.5335129 58.4983721,78.5335129 C57.0500115,78.5335129 56.4645689,77.9755774 56.4645689,76.724771 L56.4645689,74.2625774 C56.4645689,72.9784161 57.025618,72.4508032 58.4983721,72.4508032 C59.9711262,72.4508032 60.5794377,72.9875129 60.5794377,74.3338355 L59.4863066,74.3338355 C59.4863066,73.7425452 59.3445197,73.412029 58.4983721,73.412029 C57.7071098,73.412029 57.5577,73.7425452 57.5577,74.3171581 L57.5577,76.6701903 C57.5577,77.2448032 57.7071098,77.5738032 58.4983721,77.5738032 C59.2896344,77.5738032 59.4863066,77.2448032 59.4863066,76.6459323 L60.5794377,76.6459323 Z M64.9850459,72.4603548 L64.9850459,73.4049032 L62.5716197,73.4049032 L62.5716197,74.9619677 L64.6298164,74.9619677 L64.6298164,75.9383548 L62.5716197,75.9383548 L62.5716197,77.5363548 L65.096341,77.5363548 L65.096341,78.5263871 L61.4800131,78.5263871 L61.4800131,72.4603548 L64.9850459,72.4603548 Z" id="Combined-Shape" fill="#FEFEFE"></path>
                <path d="M24.6421033,25.5772484 C25.4348902,24.7888613 26.4731361,24.3946677 27.5098574,24.3946677 C28.5496279,24.3946677 29.5863492,24.7888613 30.3791361,25.5772484 C31.9631852,27.1509903 31.9631852,29.7056677 30.3791361,31.2824419 C28.7950869,32.8561839 26.2261525,32.8561839 24.6421033,31.2824419 C23.0580541,29.7056677 23.0580541,27.1509903 24.6421033,25.5772484 Z M68.94385,35.8521 C71.61985,36.7446 74.72335,38.0286 74.72335,41.5266 L74.72335,41.5971 C74.72335,45.8436 71.54785,47.7696 67.40935,47.7696 C65.05435,47.7696 62.52085,47.0916 60.20185,45.5931 C59.63035,45.2376 59.16685,44.5941 59.16685,43.7391 C59.16685,42.5241 60.09535,41.5971 61.30735,41.5971 C61.70035,41.5971 62.09335,41.7036 62.37835,41.8836 C64.19785,43.0236 66.01735,43.5951 67.55185,43.5951 C69.12235,43.5951 69.83635,43.0236 69.83635,42.1686 L69.83635,42.0966 C69.83635,40.9191 67.97935,40.5261 65.87485,39.8841 C63.19885,39.0996 60.16585,37.8516 60.16585,34.1391 L60.16585,34.0701 C60.16585,30.1791 63.30535,28.0041 67.16035,28.0041 C69.15835,28.0041 71.22685,28.5381 73.08235,29.4651 C73.86835,29.8581 74.36635,30.5706 74.36635,31.5006 C74.36635,32.7126 73.40485,33.6396 72.19135,33.6396 C71.79835,33.6396 71.54785,33.5706 71.19235,33.3906 C69.65785,32.6406 68.19385,32.1771 67.05235,32.1771 C65.73235,32.1771 65.05435,32.7486 65.05435,33.4986 L65.05435,33.5706 C65.05435,34.6386 66.87385,35.1381 68.94385,35.8521 Z M59.5411,36.9522 C59.5411,38.5227 58.4356,39.5562 57.0076,39.5562 L46.2676,39.5562 C46.8031,42.0192 48.5146,43.3032 50.9416,43.3032 C52.4401,43.3032 53.6896,42.8397 54.7951,42.0192 C55.1881,41.7342 55.5436,41.5917 56.1151,41.5917 C57.3286,41.5917 58.2211,42.5187 58.2211,43.7322 C58.2211,44.4462 57.8986,44.9817 57.5071,45.3372 C55.8301,46.7637 53.6536,47.6562 50.8711,47.6562 C45.1261,47.6562 40.8796,43.6242 40.8796,37.7727 L40.8796,37.7022 C40.8796,32.2422 44.7691,27.7467 50.3356,27.7467 C56.7226,27.7467 59.5411,32.9907 59.5411,36.9522 Z M46.1956,36.1677 L54.3676,36.1677 C54.0451,33.7407 52.6186,32.0997 50.3356,32.0997 C48.0871,32.0997 46.6246,33.7047 46.1956,36.1677 Z M35.1949714,42.6427963 L29.7504,53.2268704 L26.7942095,59.0868333 C25.0982095,62.3227963 21.0921143,63.5755741 17.8448762,61.885463 L23.1264,51.4638704 L25.0311619,47.705537 L25.4410667,46.9948704 L26.6905905,44.583463 L14.1923048,33.8095741 C16.5877333,31.0473889 20.7766857,30.7467222 23.5454476,33.1338333 L29.8204952,38.5443148 L35.662781,27.2738704 C36.8452571,25.0158333 39.1553524,23.7235741 41.5446857,23.7235741 C42.5808762,23.7235741 43.630781,23.9650185 44.6105905,24.4767593 L35.1949714,42.6427963 Z" id="Combined-Shape" fill="#FEFEFE"></path>
            </g>
        </g>
    </g>
</svg>