<?xml version="1.0" encoding="UTF-8"?>
<svg xmlns="http://www.w3.org/2000/svg" xmlns:xlink="http://www.w3.org/1999/xlink" viewBox="0 0 16 16" version="1.1" fill="#455565"><g id="surface1" fill="#455565"><path style=" " d="M 2.5 1 C 1.675781 1 1 1.675781 1 2.5 L 1 12.5 C 1 13.324219 1.675781 14 2.5 14 L 12.5 14 C 13.324219 14 14 13.324219 14 12.5 L 14 2.5 C 14 1.675781 13.324219 1 12.5 1 Z M 2.5 2 L 12.5 2 C 12.78125 2 13 2.21875 13 2.5 L 13 12.5 C 13 12.78125 12.78125 13 12.5 13 L 2.5 13 C 2.21875 13 2 12.78125 2 12.5 L 2 2.5 C 2 2.21875 2.21875 2 2.5 2 Z M 4 5 L 4 6 L 11 6 L 11 5 Z M 4 7 L 4 8 L 11 8 L 11 7 Z M 4 9 L 4 10 L 9 10 L 9 9 Z " fill="#455565"/></g></svg>
