<?xml version="1.0" encoding="utf-8" ?>
<svg xmlns="http://www.w3.org/2000/svg" xmlns:xlink="http://www.w3.org/1999/xlink" width="95" height="83">
	<defs>
		<clipPath id="clip_0">
			<rect x="-818" y="-403" width="1440" height="1913" clip-rule="evenodd"/>
		</clipPath>
	</defs>
	<g clip-path="url(#clip_0)">
		<path fill="rgb(255,255,255)" stroke="none" d="M41.5 83C46.9824 83 52.2165 81.9369 57.0075 80.0056C72.2455 73.8629 83 58.9374 83 41.5C83 18.5802 64.4198 0 41.5 0C18.5802 0 0 18.5802 0 41.5C0 64.4198 18.5802 83 41.5 83Z"/>
	</g>
	<defs>
		<clipPath id="clip_1">
			<rect x="-818" y="-403" width="1440" height="1913" clip-rule="evenodd"/>
		</clipPath>
	</defs>
	<g clip-path="url(#clip_1)">
		<path fill="rgb(247,168,35)" stroke="none" transform="translate(62 8)" d="M16.5 33C25.6127 33 33 25.6127 33 16.5C33 7.3873 25.6127 0 16.5 0C7.3873 0 0 7.3873 0 16.5C0 25.6127 7.3873 33 16.5 33Z"/>
	</g>
	<defs>
		<clipPath id="clip_2">
			<rect x="-818" y="-403" width="1440" height="1913" clip-rule="evenodd"/>
		</clipPath>
	</defs>
	<g clip-path="url(#clip_2)">
		<text fill="rgb(255,255,255)" stroke="none" transform="translate(69.3066 18)" font-size="12" font-weight="bold" font-family="Segoe UI" x="0" y="12.201172">
				+3
		</text>
	</g>
</svg>