<?xml version="1.0" encoding="UTF-8"?>
<svg xmlns="http://www.w3.org/2000/svg" xmlns:xlink="http://www.w3.org/1999/xlink" viewBox="0 0 16 16" version="1.1" fill="#455565"><g id="surface1" fill="#455565"><path style=" " d="M 2.5 3 C 1.675781 3 1 3.675781 1 4.5 L 1 9.5 C 1 10.324219 1.675781 11 2.5 11 L 13.5 11 C 14.324219 11 15 10.324219 15 9.5 L 15 4.5 C 15 3.675781 14.324219 3 13.5 3 Z M 3 4 L 13 4 C 13 4.546875 13.453125 5 14 5 L 14 9 C 13.453125 9 13 9.453125 13 10 L 3 10 C 3 9.453125 2.546875 9 2 9 L 2 5 C 2.546875 5 3 4.546875 3 4 Z M 8 5 C 6.902344 5 6 5.902344 6 7 C 6 8.097656 6.902344 9 8 9 C 9.097656 9 10 8.097656 10 7 C 10 5.902344 9.097656 5 8 5 Z M 4 6 C 3.449219 6 3 6.449219 3 7 C 3 7.550781 3.449219 8 4 8 C 4.550781 8 5 7.550781 5 7 C 5 6.449219 4.550781 6 4 6 Z M 8 6 C 8.558594 6 9 6.441406 9 7 C 9 7.558594 8.558594 8 8 8 C 7.441406 8 7 7.558594 7 7 C 7 6.441406 7.441406 6 8 6 Z M 12 6 C 11.449219 6 11 6.449219 11 7 C 11 7.550781 11.449219 8 12 8 C 12.550781 8 13 7.550781 13 7 C 13 6.449219 12.550781 6 12 6 Z M 2 12 C 2.207031 12.582031 2.757813 13 3.40625 13 L 4.476563 13 C 6.125 13 7.789063 13.128906 9.417969 13.378906 L 12.269531 13.816406 C 12.347656 13.828125 12.425781 13.835938 12.5 13.835938 C 12.855469 13.835938 13.203125 13.710938 13.476563 13.472656 C 13.808594 13.1875 14 12.773438 14 12.332031 L 14 12 L 12.875 12 C 12.367188 12 11.976563 12.324219 11.90625 12.75 L 9.570313 12.390625 C 7.890625 12.132813 6.175781 12 4.476563 12 Z " fill="#455565"/></g></svg>
