<?xml version="1.0" encoding="utf-8" ?>
<svg xmlns="http://www.w3.org/2000/svg" xmlns:xlink="http://www.w3.org/1999/xlink" width="20" height="20">
	<defs>
		<clipPath id="clip_0">
			<rect x="-259" y="-391" width="1440" height="1055" clip-rule="evenodd"/>
		</clipPath>
	</defs>
	<g clip-path="url(#clip_0)">
		<path fill="rgb(255,149,0)" stroke="none" transform="translate(0.729126 0)" d="M0 6.35417C1.45182 2.63346 5.00977 0 9.27083 0C12.2461 0 14.9447 1.31836 16.7708 3.41146L16.7708 0.833333L18.4375 0.833333L18.4375 6.66667L12.6042 6.66667L12.6042 5L15.8854 5C14.3815 2.99154 11.9727 1.66667 9.27083 1.66667C5.69662 1.66667 2.75065 3.86719 1.53646 6.97917L0 6.35417ZM9.27083 18.3333C12.8451 18.3333 15.791 16.1328 17.0052 13.0208L18.5417 13.6458C17.0898 17.3665 13.5319 20 9.27083 20C6.26628 20 3.59375 18.6556 1.77083 16.5885L1.77083 19.1667L0.104167 19.1667L0.104167 13.3333L5.9375 13.3333L5.9375 15L2.63021 15C4.14062 16.9889 6.53971 18.3333 9.27083 18.3333Z" fill-rule="evenodd"/>
	</g>

</svg>